<svg width="30" height="30" viewBox="0 0 30 30" fill="none" xmlns="http://www.w3.org/2000/svg">
<path d="M23.6601 6.67689C22.0423 5.89979 20.3193 5.3272 18.5043 5C18.2807 5.409 18.0177 5.96796 17.8467 6.41786C15.9264 6.11793 14.0193 6.11793 12.1386 6.41786C11.9544 5.96796 11.6914 5.409 11.4678 5C9.65275 5.3272 7.92979 5.89979 6.31204 6.67689C3.05024 11.7757 2.16903 16.7519 2.60306 21.6462C4.77321 23.3231 6.86444 24.332 8.92937 25C9.44231 24.2774 9.8895 23.5003 10.2841 22.696C9.53438 22.4097 8.82415 22.0416 8.15338 21.619C8.33751 21.4826 8.50849 21.3327 8.67947 21.1963C12.7962 23.1868 17.2548 23.1868 21.3189 21.1963C21.4899 21.3463 21.6609 21.4826 21.845 21.619C21.1743 22.0416 20.4509 22.3961 19.7143 22.696C20.1089 23.5003 20.5561 24.2774 21.069 25C23.134 24.332 25.2383 23.3231 27.3953 21.6462C27.9083 15.9612 26.5141 11.0395 23.6864 6.67689H23.6601ZM10.8365 18.6469C9.60014 18.6469 8.58741 17.4608 8.58741 16.0021C8.58741 14.5433 9.57384 13.3572 10.8365 13.3572C12.0991 13.3572 13.0987 14.5433 13.0855 16.0021C13.0855 17.4472 12.0991 18.6469 10.8365 18.6469ZM19.1356 18.6469C17.8993 18.6469 16.8866 17.4608 16.8866 16.0021C16.8866 14.5433 17.873 13.3572 19.1356 13.3572C20.3983 13.3572 21.3978 14.5433 21.3847 16.0021C21.3847 17.4472 20.3983 18.6469 19.1356 18.6469Z" fill="#848484"/>
</svg>
