<svg width="30" height="30" viewBox="0 0 30 30" fill="none" xmlns="http://www.w3.org/2000/svg">
<path d="M27.43 9.84588C27.37 8.51481 27.1549 7.60408 26.8499 6.80845C26.5298 5.98779 26.1047 5.28723 25.4096 4.59668C24.7145 3.90612 24.0193 3.47078 23.1992 3.15552C22.404 2.84528 21.4938 2.63511 20.1635 2.57506C18.8283 2.51501 18.4032 2.5 15.0125 2.5C11.6168 2.5 11.1917 2.51501 9.86148 2.57506C8.53122 2.63511 7.62104 2.85028 6.82588 3.15552C6.00071 3.47578 5.30057 3.90112 4.61043 4.59668C3.9203 5.29223 3.48521 5.98779 3.17015 6.80845C2.86508 7.60408 2.65004 8.51481 2.59003 9.84588C2.53002 11.1819 2.51501 11.6073 2.51501 15C2.51501 18.3977 2.53002 18.8231 2.59003 20.1541C2.65004 21.4852 2.86508 22.3959 3.17015 23.1916C3.49021 24.0122 3.91529 24.7128 4.61043 25.4033C5.30057 26.0989 6.00071 26.5292 6.82088 26.8445C7.61603 27.1547 8.52622 27.3649 9.85648 27.4249C11.1918 27.485 11.6168 27.5 15.0075 27.5C18.4032 27.5 18.8283 27.485 20.1585 27.4249C21.4888 27.3649 22.399 27.1497 23.1942 26.8445C24.0143 26.5242 24.7145 26.0989 25.4046 25.4033C26.0947 24.7078 26.5298 24.0122 26.8449 23.1916C27.1549 22.3959 27.365 21.4852 27.425 20.1541C27.485 18.8181 27.5 18.3927 27.5 15C27.5 11.6073 27.49 11.1769 27.43 9.84588ZM25.1845 20.054C25.1295 21.275 24.9245 21.9406 24.7545 22.3759C24.5294 22.9564 24.2544 23.3767 23.8143 23.8171C23.3742 24.2574 22.9591 24.5226 22.374 24.7578C21.9339 24.9279 21.2688 25.1331 20.0535 25.1882C18.7383 25.2482 18.3432 25.2632 15.0025 25.2632C11.6618 25.2632 11.2668 25.2482 9.9515 25.1882C8.73126 25.1331 8.06612 24.9279 7.63104 24.7578C7.05092 24.5326 6.63084 24.2574 6.19075 23.8171C5.75066 23.3767 5.48561 22.9614 5.25056 22.3759C5.08053 21.9355 4.87549 21.27 4.82048 20.054C4.76046 18.738 4.74546 18.3427 4.74546 15C4.74546 11.6573 4.76046 11.262 4.82048 9.94596C4.87549 8.72498 5.08053 8.05945 5.25056 7.6241C5.47561 7.04363 5.75066 6.6233 6.19075 6.18295C6.63084 5.74259 7.04592 5.47738 7.63104 5.24219C8.07113 5.07206 8.73626 4.86689 9.9515 4.81185C11.2668 4.7518 11.6618 4.73679 15.0025 4.73679C18.3432 4.73679 18.7383 4.7518 20.0535 4.81185C21.2738 4.86689 21.9389 5.07206 22.374 5.24219C22.9541 5.46737 23.3742 5.74259 23.8143 6.18295C24.2544 6.6233 24.5194 7.03863 24.7545 7.6241C24.9245 8.06445 25.1295 8.72998 25.1845 9.94596C25.2446 11.262 25.2596 11.6573 25.2596 15C25.2596 18.3427 25.2396 18.738 25.1845 20.054Z" fill="#848484"/>
<path d="M15.0024 8.57489C11.4517 8.57489 8.58112 11.4522 8.58112 15C8.58112 18.5529 11.4567 21.4252 15.0024 21.4252C18.5481 21.4252 21.4237 18.5429 21.4237 15C21.4237 11.4472 18.5531 8.57489 15.0024 8.57489ZM15.0024 19.1684C12.7019 19.1684 10.8366 17.3019 10.8366 15C10.8366 12.6982 12.7019 10.8317 15.0024 10.8317C17.3029 10.8317 19.1682 12.6982 19.1682 15C19.1682 17.3019 17.3029 19.1684 15.0024 19.1684Z" fill="#848484"/>
<path d="M21.6738 9.82583C22.5024 9.82583 23.1741 9.15372 23.1741 8.32463C23.1741 7.49554 22.5024 6.82343 21.6738 6.82343C20.8452 6.82343 20.1735 7.49554 20.1735 8.32463C20.1735 9.15372 20.8452 9.82583 21.6738 9.82583Z" fill="#848484"/>
<path d="M2.5 15C2.5 18.3977 2.51501 18.8231 2.57506 20.1541C2.63511 21.4852 2.85028 22.3959 3.15552 23.1916C3.47578 24.0122 3.90112 24.7128 4.59668 25.4033C5.28723 26.0939 5.98779 26.5292 6.80845 26.8445C7.60408 27.1547 8.51481 27.3649 9.84588 27.4249C11.1819 27.485 11.6073 27.5 15 27.5C18.3977 27.5 18.8231 27.485 20.1541 27.4249C21.4852 27.3649 22.3959 27.1497 23.1916 26.8445C24.0122 26.5242 24.7128 26.0989 25.4033 25.4033C26.0939 24.7128 26.5292 24.0122 26.8445 23.1916C27.1547 22.3959 27.3649 21.4852 27.4249 20.1541C27.485 18.8181 27.5 18.3927 27.5 15C27.5 11.6023 27.485 11.1769 27.4249 9.84588C27.3649 8.51481 27.1497 7.60408 26.8445 6.80845C26.5242 5.98779 26.0989 5.28723 25.4033 4.59668C24.7178 3.90112 24.0172 3.47078 23.1966 3.15552C22.4009 2.84528 21.4902 2.63511 20.1591 2.57506C18.8231 2.51501 18.3977 2.5 15.005 2.5C11.6073 2.5 11.1819 2.51501 9.85088 2.57506C8.51982 2.63511 7.60909 2.85028 6.81345 3.15552C5.99279 3.47578 5.29223 3.90112 4.60168 4.59668C3.91113 5.29223 3.47578 5.98779 3.16053 6.80845C2.85028 7.60408 2.63511 8.51481 2.57506 9.84588C2.51501 11.1769 2.5 11.6023 2.5 15ZM4.75681 15C4.75681 11.6623 4.77182 11.262 4.83187 9.94596C4.88691 8.72498 5.09207 8.05945 5.26221 7.6241C5.48739 7.04363 5.76261 6.6233 6.20296 6.18295C6.64331 5.74259 7.05865 5.47738 7.64412 5.24219C8.08447 5.07206 8.75 4.86689 9.96597 4.81185C11.282 4.7518 11.6773 4.73679 15.02 4.73679C18.3627 4.73679 18.758 4.7518 20.0741 4.81185C21.295 4.86689 21.9606 5.07206 22.3959 5.24219C22.9764 5.46737 23.3967 5.74259 23.8371 6.18295C24.2774 6.6233 24.5426 7.03863 24.7778 7.6241C24.948 8.06445 25.1531 8.72998 25.2082 9.94596C25.2682 11.262 25.2832 11.6573 25.2832 15C25.2832 18.3427 25.2682 18.738 25.2082 20.054C25.1531 21.275 24.948 21.9406 24.7778 22.3759C24.5526 22.9564 24.2774 23.3767 23.8371 23.8171C23.3967 24.2574 22.9814 24.5226 22.3959 24.7578C21.9556 24.9279 21.29 25.1331 20.0741 25.1882C18.758 25.2482 18.3627 25.2632 15.02 25.2632C11.6773 25.2632 11.282 25.2482 9.96597 25.1882C8.745 25.1331 8.07946 24.9279 7.64412 24.7578C7.06365 24.5326 6.64331 24.2574 6.20296 23.8171C5.76261 23.3767 5.4974 22.9614 5.26221 22.3759C5.09207 21.9355 4.88691 21.27 4.83187 20.054C4.76681 18.738 4.75681 18.3377 4.75681 15Z" fill="#848484"/>
</svg>
