<svg width="128" height="21" viewBox="0 0 128 21" fill="none" xmlns="http://www.w3.org/2000/svg">
<path fill-rule="evenodd" clip-rule="evenodd" d="M24 17.5238V3.04762C24 1.36447 22.7359 0 21.1765 0H14.9726C13.5565 0 12.2341 0.763891 11.4486 2.03565L9.72789 4.82149C8.9424 6.09325 7.62001 6.85714 6.20393 6.85714H2.82353C1.26414 6.85714 0 8.22161 0 9.9048V17.5238C0 19.2069 1.26414 20.5714 2.82353 20.5714H21.1765C22.7359 20.5714 24 19.2069 24 17.5238Z" fill="white"/>
<path d="M11.2941 2.28568H2.82353C1.26414 2.28568 0 3.65014 0 5.3333V9.9048C0 8.22161 1.26414 6.85714 2.82353 6.85714H6.20393C7.62001 6.85714 8.9424 6.09325 9.72789 4.82149L11.2941 2.28568Z" fill="white" fill-opacity="0.65"/>
<path d="M37.4824 16.7911C36.7734 16.7911 36.1348 16.6769 35.5664 16.4484C34.998 16.2199 34.5381 15.88 34.1865 15.4288C33.8408 14.9777 33.6475 14.4181 33.6064 13.7501H35.4346C35.54 14.7931 36.2109 15.3146 37.4473 15.3146C38.0332 15.3146 38.4961 15.1945 38.8359 14.9542C39.1816 14.714 39.3545 14.4093 39.3545 14.0402C39.3545 13.7238 39.2314 13.4718 38.9854 13.2843C38.7393 13.0909 38.417 12.9503 38.0186 12.8624L36.4805 12.5197C34.7051 12.1329 33.8174 11.2482 33.8174 9.86536C33.8174 9.04505 34.1426 8.37708 34.793 7.86145C35.4492 7.34583 36.3076 7.08802 37.3682 7.08802C38.417 7.08802 39.2783 7.36048 39.9521 7.9054C40.6318 8.44446 40.9834 9.18274 41.0068 10.1202H39.2314C39.2256 9.66907 39.0557 9.297 38.7217 9.00403C38.3877 8.7052 37.9453 8.55579 37.3945 8.55579C36.8672 8.55579 36.4482 8.67883 36.1377 8.92493C35.8271 9.17102 35.6719 9.47278 35.6719 9.8302C35.6719 10.1466 35.7891 10.4015 36.0234 10.5949C36.2637 10.7882 36.5918 10.9318 37.0078 11.0255L38.5898 11.3771C39.4922 11.5763 40.1572 11.8839 40.585 12.2999C41.0127 12.7159 41.2266 13.2609 41.2266 13.9347C41.2266 14.5265 41.0625 15.0363 40.7344 15.464C40.4121 15.8859 39.9697 16.214 39.4072 16.4484C38.8447 16.6769 38.2031 16.7911 37.4824 16.7911Z" fill="white"/>
<path d="M42.6901 20.2452V7.29016H44.5095V8.6261H44.5358C44.8288 8.11633 45.2302 7.73548 45.7399 7.48352C46.2497 7.23157 46.8063 7.10559 47.4098 7.10559C48.2067 7.10559 48.9069 7.31067 49.5104 7.72083C50.1139 8.12512 50.5827 8.69055 50.9167 9.41712C51.2565 10.1378 51.4264 10.9757 51.4264 11.9308C51.4264 12.8859 51.2595 13.7267 50.9255 14.4532C50.5915 15.174 50.1227 15.7394 49.5192 16.1495C48.9157 16.5538 48.2096 16.756 47.4011 16.756C46.7975 16.756 46.2526 16.6241 45.7663 16.3605C45.28 16.0968 44.8815 15.7013 44.571 15.174H44.5446V20.2452H42.6901ZM47.0231 15.1564C47.7731 15.1564 48.3796 14.881 48.8425 14.3302C49.3112 13.7794 49.5456 12.9796 49.5456 11.9308C49.5456 10.882 49.3112 10.0822 48.8425 9.53137C48.3796 8.97473 47.7731 8.69641 47.0231 8.69641C46.2321 8.69641 45.5993 8.99231 45.1247 9.58411C44.6559 10.17 44.4216 10.9523 44.4216 11.9308C44.4216 12.9034 44.6559 13.6857 45.1247 14.2775C45.5993 14.8634 46.2321 15.1564 47.0231 15.1564Z" fill="white"/>
<path d="M54.7357 3.47571V16.5714H52.8812V3.47571H54.7357Z" fill="white"/>
<path d="M56.6563 16.5714V7.29016H58.5108V16.5714H56.6563ZM57.5791 5.69055C57.251 5.69055 56.9727 5.58216 56.7442 5.36536C56.5215 5.1427 56.4102 4.87317 56.4102 4.55677C56.4102 4.2345 56.5215 3.96497 56.7442 3.74817C56.9727 3.52552 57.251 3.41419 57.5791 3.41419C57.9073 3.41419 58.1856 3.52552 58.4141 3.74817C58.6426 3.96497 58.7569 4.2345 58.7569 4.55677C58.7569 4.87317 58.6426 5.1427 58.4141 5.36536C58.1856 5.58216 57.9073 5.69055 57.5791 5.69055Z" fill="white"/>
<path d="M65.0632 7.29016V8.81946H63.1823V14.1193C63.1823 14.465 63.2527 14.7052 63.3933 14.84C63.5339 14.9747 63.7888 15.0421 64.1579 15.0421H65.0632V16.5714H63.8943C62.1775 16.5714 61.3191 15.8331 61.3191 14.3566V8.81946H59.6843V7.29016H61.3191V4.75891H63.1823V7.29016H65.0632Z" fill="white"/>
<path d="M68.2055 3.47571V16.5714H66.351V3.47571H68.2055Z" fill="white"/>
<path d="M70.3546 20.2452V18.6808H71.3565C71.6495 18.6808 71.8868 18.5958 72.0684 18.4259C72.2559 18.2618 72.42 17.9894 72.5606 17.6085L72.9825 16.5099L69.3966 7.29016H71.3829L73.2374 12.379C73.3604 12.7247 73.4805 13.0734 73.5977 13.4249C73.7149 13.7706 73.8292 14.1163 73.9405 14.462C74.0518 14.1163 74.1661 13.7706 74.2833 13.4249C74.4063 13.0734 74.5294 12.7247 74.6524 12.379L76.4805 7.29016H78.4405L74.2218 18.1974C73.7003 19.5626 72.8038 20.2452 71.5323 20.2452H70.3546Z" fill="white"/>
<path d="M79.3328 16.7208C78.9929 16.7208 78.7029 16.6036 78.4627 16.3693C78.2283 16.129 78.1111 15.8361 78.1111 15.4904C78.1111 15.1505 78.2283 14.8605 78.4627 14.6202C78.7029 14.38 78.9929 14.2599 79.3328 14.2599C79.6785 14.2599 79.9685 14.38 80.2029 14.6202C80.4431 14.8605 80.5632 15.1505 80.5632 15.4904C80.5632 15.8361 80.4431 16.129 80.2029 16.3693C79.9685 16.6036 79.6785 16.7208 79.3328 16.7208Z" fill="white"/>
<path d="M85.7182 16.7824C84.8862 16.7824 84.1655 16.6183 83.5561 16.2902C82.9467 15.962 82.478 15.5021 82.1498 14.9103C81.8217 14.3126 81.6577 13.6154 81.6577 12.8185C81.6577 12.0743 81.7836 11.3595 82.0356 10.674C82.2875 9.98255 82.6479 9.36731 83.1166 8.82825C83.5912 8.28919 84.1596 7.86438 84.8217 7.55384C85.4838 7.23743 86.228 7.07923 87.0541 7.07923C87.8452 7.07923 88.5453 7.2345 89.1547 7.54505C89.7641 7.84973 90.2299 8.2804 90.5522 8.83704C90.8803 9.38782 91.0092 10.0294 90.9389 10.7618H88.434C88.4399 10.3224 88.3373 9.94739 88.1264 9.63684C87.9155 9.3263 87.5463 9.17102 87.019 9.17102C86.4272 9.17102 85.9233 9.35559 85.5073 9.72473C85.0971 10.0939 84.7836 10.5626 84.5668 11.131C84.3559 11.6935 84.2504 12.2677 84.2504 12.8536C84.2504 13.4337 84.3823 13.8849 84.6459 14.2072C84.9155 14.5294 85.308 14.6906 85.8237 14.6906C86.3686 14.6906 86.8344 14.5382 87.2211 14.2335C87.6078 13.9288 87.8803 13.545 88.0385 13.0822H90.561C90.4028 13.8087 90.0952 14.4503 89.6381 15.007C89.1811 15.5636 88.6157 16.0001 87.9418 16.3165C87.268 16.6271 86.5268 16.7824 85.7182 16.7824Z" fill="white"/>
<path d="M95.9357 3.47571L93.7648 16.5714H91.172L93.3429 3.47571H95.9357Z" fill="white"/>
<path d="M99.8338 16.7824C98.5623 16.7824 97.5574 16.422 96.8191 15.7013C96.0867 14.9747 95.7205 14.0079 95.7205 12.8009C95.7205 12.0157 95.8494 11.2804 96.1072 10.5949C96.3709 9.90344 96.7459 9.29407 97.2322 8.76673C97.7186 8.23938 98.2928 7.8263 98.9549 7.52747C99.6228 7.22864 100.358 7.07923 101.161 7.07923C102.432 7.07923 103.434 7.44251 104.167 8.16907C104.905 8.89563 105.274 9.86536 105.274 11.0782C105.274 11.8341 105.145 12.5548 104.887 13.2404C104.636 13.9259 104.272 14.5353 103.798 15.0685C103.323 15.6017 102.749 16.0206 102.075 16.3253C101.407 16.63 100.66 16.7824 99.8338 16.7824ZM99.9832 14.6818C100.575 14.6818 101.07 14.4972 101.469 14.1281C101.873 13.7589 102.178 13.296 102.383 12.7394C102.588 12.1827 102.69 11.6202 102.69 11.0519C102.69 10.4542 102.535 9.99426 102.224 9.672C101.914 9.34387 101.51 9.17981 101.012 9.17981C100.431 9.17981 99.9393 9.36438 99.535 9.73352C99.1307 10.0968 98.823 10.5597 98.6121 11.1222C98.407 11.6788 98.3045 12.2472 98.3045 12.8273C98.3045 13.4249 98.4568 13.8849 98.7615 14.2072C99.0721 14.5236 99.4793 14.6818 99.9832 14.6818Z" fill="white"/>
<path d="M108.909 16.7648C107.918 16.7648 107.18 16.4484 106.694 15.8156C106.207 15.1769 106.061 14.2716 106.254 13.0997L107.221 7.29016H109.805L108.917 12.6251C108.818 13.2462 108.891 13.7208 109.137 14.049C109.383 14.3712 109.776 14.5324 110.315 14.5324C110.848 14.5324 111.311 14.3654 111.704 14.0314C112.102 13.6974 112.363 13.17 112.486 12.4493L113.338 7.29016H115.922L114.384 16.5714H111.835L112.082 15.1124C111.677 15.6398 111.214 16.047 110.693 16.3341C110.171 16.6212 109.577 16.7648 108.909 16.7648Z" fill="white"/>
<path d="M119.759 16.7648C118.687 16.7648 117.846 16.4191 117.236 15.7277C116.633 15.0363 116.331 14.1105 116.331 12.9503C116.331 12.2238 116.44 11.5118 116.656 10.8146C116.873 10.1173 117.184 9.49036 117.588 8.93372C117.998 8.37122 118.493 7.92591 119.073 7.59778C119.659 7.2638 120.321 7.0968 121.06 7.0968C122.361 7.0968 123.234 7.62708 123.679 8.68762H123.688L124.54 3.47571H127.124L124.962 16.5714H122.413L122.633 15.2091H122.624C122.273 15.7657 121.851 16.1642 121.359 16.4044C120.866 16.6447 120.333 16.7648 119.759 16.7648ZM120.497 14.6554C121.083 14.6554 121.59 14.4767 122.018 14.1193C122.445 13.7618 122.777 13.3107 123.011 12.7657C123.245 12.2208 123.362 11.6642 123.362 11.0958C123.362 10.4982 123.213 10.0324 122.914 9.69837C122.615 9.35852 122.202 9.1886 121.675 9.1886C121.083 9.1886 120.582 9.37317 120.172 9.74231C119.762 10.1115 119.451 10.5773 119.24 11.1398C119.029 11.6964 118.924 12.2648 118.924 12.8449C118.924 13.4308 119.062 13.879 119.337 14.1896C119.612 14.5001 119.999 14.6554 120.497 14.6554Z" fill="white"/>
</svg>
