<?xml version="1.0"?><svg xmlns="http://www.w3.org/2000/svg" width="26" height="26" viewBox="0 0 26 26" fill="none" version="1.2" baseProfile="tiny-ps"><title>Company Name</title><path d="M0 6.5C0 2.91015 2.85935 0 6.38654 0H19.1596C22.6868 0 25.5462 2.91015 25.5462 6.5V19.5C25.5462 23.0899 22.6868 26 19.1596 26H6.38654C2.85935 26 0 23.0899 0 19.5V6.5Z" fill="#7853FF"/><path d="M7.22412 17.875H15.6697C16.1323 17.875 16.5073 17.5202 16.5073 17.0825V11.3239L6.38654 14.8091V17.0825C6.38654 17.5202 6.76154 17.875 7.22412 17.875Z" fill="white"/><path d="M18.322 6.5H9.87645C9.41387 6.5 9.03887 6.85479 9.03887 7.29245V13.0096L19.1596 9.5244V7.29245C19.1596 6.85479 18.7846 6.5 18.322 6.5Z" fill="white"/></svg>
