<svg width="86" height="26" viewBox="0 0 86 26" fill="none" xmlns="http://www.w3.org/2000/svg">
<path d="M0 6.5C0 2.91015 2.85935 0 6.38654 0H19.1596C22.6868 0 25.5462 2.91015 25.5462 6.5V19.5C25.5462 23.0899 22.6868 26 19.1596 26H6.38654C2.85935 26 0 23.0899 0 19.5V6.5Z" fill="#7853FF"/>
<path d="M7.22412 17.875H15.6697C16.1323 17.875 16.5073 17.5202 16.5073 17.0825V11.3239L6.38654 14.8091V17.0825C6.38654 17.5202 6.76154 17.875 7.22412 17.875Z" fill="white"/>
<path d="M18.322 6.5H9.87645C9.41387 6.5 9.03887 6.85479 9.03887 7.29245V13.0096L19.1596 9.5244V7.29245C19.1596 6.85479 18.7846 6.5 18.322 6.5Z" fill="white"/>
<path d="M40.9169 19.7285C39.8753 19.7285 38.971 19.5635 38.2039 19.2334C37.443 18.897 36.8473 18.4177 36.417 17.7957C35.9867 17.1736 35.7465 16.4341 35.6966 15.5771H37.8109C37.8546 16.0913 38.0168 16.5198 38.2974 16.8625C38.5843 17.199 38.9554 17.4497 39.4107 17.6147C39.866 17.7798 40.3649 17.8623 40.9075 17.8623C41.5 17.8623 42.0302 17.7671 42.4979 17.5767C42.9657 17.3862 43.3306 17.1196 43.5925 16.7769C43.8607 16.4277 43.9948 16.0215 43.9948 15.5581C43.9948 15.1392 43.8763 14.7964 43.6393 14.5298C43.4085 14.2632 43.0936 14.0442 42.6944 13.8728C42.2952 13.6951 41.8462 13.5396 41.3472 13.4062L39.7101 12.9492C38.5874 12.6445 37.7018 12.1907 37.0532 11.5876C36.4045 10.9783 36.0802 10.1816 36.0802 9.19775C36.0802 8.37891 36.2954 7.66479 36.7257 7.05542C37.1623 6.44604 37.7517 5.97314 38.4939 5.63672C39.2423 5.29395 40.0812 5.12256 41.0104 5.12256C41.9584 5.12256 42.7911 5.29395 43.5083 5.63672C44.2318 5.97314 44.8025 6.43652 45.2203 7.02686C45.6444 7.61084 45.8658 8.28052 45.8845 9.03589H43.8451C43.7703 8.38208 43.4709 7.87427 42.947 7.51245C42.4293 7.15063 41.7682 6.96973 40.9637 6.96973C40.4023 6.96973 39.9096 7.06177 39.4855 7.24585C39.0677 7.42358 38.7433 7.67114 38.5126 7.98853C38.2881 8.30591 38.1758 8.6709 38.1758 9.0835C38.1758 9.52783 38.3099 9.88965 38.5781 10.1689C38.8525 10.4482 39.183 10.6704 39.5697 10.8354C39.9627 10.9941 40.34 11.1243 40.7017 11.2258L42.0582 11.5972C42.5011 11.7114 42.9563 11.8638 43.4241 12.0542C43.8919 12.2446 44.3253 12.4954 44.7245 12.8064C45.1299 13.1111 45.4542 13.4919 45.6974 13.949C45.9469 14.3997 46.0717 14.9456 46.0717 15.5867C46.0717 16.3801 45.869 17.0911 45.4636 17.7195C45.0582 18.3416 44.4719 18.8335 43.7048 19.1953C42.9376 19.5508 42.0083 19.7285 40.9169 19.7285Z" fill="white"/>
<path d="M47.6246 23.48V8.85498H49.5892V10.5879H49.7576C49.8824 10.3657 50.0539 10.1086 50.2722 9.81665C50.4967 9.52466 50.8085 9.27075 51.2077 9.05493C51.6069 8.83276 52.1276 8.72168 52.77 8.72168C53.612 8.72168 54.3604 8.9375 55.0153 9.36914C55.6764 9.80078 56.1972 10.426 56.5776 11.2449C56.9581 12.0637 57.1483 13.0508 57.1483 14.2061C57.1483 15.3486 56.9612 16.3325 56.587 17.1577C56.2128 17.9766 55.6951 18.6082 55.034 19.0525C54.3791 19.4905 53.6276 19.7095 52.7794 19.7095C52.1495 19.7095 51.6318 19.6016 51.2264 19.3857C50.8273 19.1636 50.5123 18.9065 50.2815 18.6145C50.057 18.3225 49.8824 18.0654 49.7576 17.8433H49.6454V23.48H47.6246ZM52.3397 17.948C52.9447 17.948 53.4499 17.783 53.8552 17.4529C54.2606 17.1228 54.5662 16.6753 54.7721 16.1104C54.9841 15.5391 55.0901 14.8979 55.0901 14.187C55.0901 13.4824 54.9872 12.8508 54.7814 12.2922C54.5756 11.7336 54.27 11.2925 53.8646 10.9688C53.4592 10.645 52.9509 10.4832 52.3397 10.4832C51.7472 10.4832 51.2482 10.6387 50.8428 10.9497C50.4375 11.2544 50.1287 11.686 49.9167 12.2446C49.7109 12.7969 49.6079 13.4443 49.6079 14.187C49.6079 14.9297 49.714 15.5835 49.926 16.1484C50.1381 16.7134 50.4468 17.1545 50.8522 17.4719C51.2638 17.7893 51.7597 17.948 52.3397 17.948Z" fill="white"/>
<path d="M60.6472 5.31299V19.5H58.6264V5.31299H60.6472Z" fill="white"/>
<path d="M62.5931 19.5V8.85498H64.6138V19.5H62.5931ZM63.6128 7.21729C63.2573 7.21729 62.9548 7.09668 62.7053 6.85547C62.4559 6.61426 62.3311 6.32544 62.3311 5.98901C62.3311 5.64624 62.4559 5.35425 62.7053 5.11304C62.9548 4.87183 63.2573 4.75122 63.6128 4.75122C63.9621 4.75122 64.2614 4.87183 64.5109 5.11304C64.7666 5.35425 64.8945 5.64624 64.8945 5.98901C64.8945 6.32544 64.7666 6.61426 64.5109 6.85547C64.2614 7.09668 63.9621 7.21729 63.6128 7.21729Z" fill="white"/>
<path d="M71.4245 8.85498V10.5212H65.7177V8.85498H71.4245ZM67.2427 6.32227H69.2728V16.377C69.2728 16.8657 69.3725 17.2244 69.5721 17.4529C69.7717 17.675 70.0929 17.7861 70.5357 17.7861C70.6417 17.7861 70.754 17.7798 70.8725 17.7671C70.9972 17.7544 71.122 17.7354 71.2467 17.71L71.6303 19.4238C71.4245 19.4937 71.1999 19.5476 70.9567 19.5857C70.7135 19.6238 70.4702 19.6428 70.227 19.6428C69.3226 19.6428 68.5992 19.3857 68.0566 18.8716C67.514 18.3511 67.2427 17.6592 67.2427 16.7959V6.32227Z" fill="white"/>
<path d="M75.1292 5.31299V19.5H73.1084V5.31299H75.1292Z" fill="white"/>
<path d="M78.3474 23.48C78.0418 23.4863 77.7642 23.4641 77.5148 23.4133C77.2715 23.3689 77.0844 23.3149 76.9534 23.2515L77.4493 21.5662L77.5896 21.6042C78.1073 21.7375 78.5438 21.728 78.8993 21.5757C79.2611 21.4297 79.5636 21.0203 79.8068 20.3474L80.0594 19.6428L76.2424 8.85498H78.4222L81.0604 17.1196H81.1727L83.8202 8.85498H86L81.6966 20.9092C81.497 21.4678 81.2444 21.9375 80.9388 22.3184C80.6332 22.7056 80.2652 22.9944 79.8349 23.1848C79.4108 23.3816 78.9149 23.48 78.3474 23.48Z" fill="white"/>
</svg>
