<svg width="125" height="22" viewBox="0 0 125 22" fill="none" xmlns="http://www.w3.org/2000/svg">
<path d="M5.44043 18.2109C4.46191 18.2109 3.6123 18.0586 2.8916 17.7539C2.17676 17.4434 1.61719 17.001 1.21289 16.4268C0.808594 15.8525 0.583008 15.1699 0.536133 14.3789H2.52246C2.56348 14.8535 2.71582 15.249 2.97949 15.5654C3.24902 15.876 3.59766 16.1074 4.02539 16.2598C4.45312 16.4121 4.92188 16.4883 5.43164 16.4883C5.98828 16.4883 6.48633 16.4004 6.92578 16.2246C7.36523 16.0488 7.70801 15.8027 7.9541 15.4863C8.20605 15.1641 8.33203 14.7891 8.33203 14.3613C8.33203 13.9746 8.2207 13.6582 7.99805 13.4121C7.78125 13.166 7.48535 12.9639 7.11035 12.8057C6.73535 12.6416 6.31348 12.498 5.84473 12.375L4.30664 11.9531C3.25195 11.6719 2.41992 11.2529 1.81055 10.6963C1.20117 10.1338 0.896484 9.39844 0.896484 8.49023C0.896484 7.73438 1.09863 7.0752 1.50293 6.5127C1.91309 5.9502 2.4668 5.51367 3.16406 5.20312C3.86719 4.88672 4.65527 4.72852 5.52832 4.72852C6.41895 4.72852 7.20117 4.88672 7.875 5.20312C8.55469 5.51367 9.09082 5.94141 9.4834 6.48633C9.88184 7.02539 10.0898 7.64355 10.1074 8.34082H8.19141C8.12109 7.7373 7.83984 7.26855 7.34766 6.93457C6.86133 6.60059 6.24023 6.43359 5.48438 6.43359C4.95703 6.43359 4.49414 6.51855 4.0957 6.68848C3.70312 6.85254 3.39844 7.08105 3.18164 7.37402C2.9707 7.66699 2.86523 8.00391 2.86523 8.38477C2.86523 8.79492 2.99121 9.12891 3.24316 9.38672C3.50098 9.64453 3.81152 9.84961 4.1748 10.002C4.54395 10.1484 4.89844 10.2686 5.23828 10.3623L6.5127 10.7051C6.92871 10.8105 7.35645 10.9512 7.7959 11.127C8.23535 11.3027 8.64258 11.5342 9.01758 11.8213C9.39844 12.1025 9.70312 12.4541 9.93164 12.876C10.166 13.292 10.2832 13.7959 10.2832 14.3877C10.2832 15.1201 10.0928 15.7764 9.71191 16.3564C9.33105 16.9307 8.78027 17.3848 8.05957 17.7188C7.33887 18.0469 6.46582 18.2109 5.44043 18.2109ZM11.5622 21.6738V8.17383H13.4079V9.77344H13.5661C13.6833 9.56836 13.8444 9.33105 14.0495 9.06152C14.2604 8.79199 14.5534 8.55762 14.9284 8.3584C15.3034 8.15332 15.7927 8.05078 16.3962 8.05078C17.1872 8.05078 17.8903 8.25 18.5055 8.64844C19.1266 9.04688 19.6159 9.62402 19.9733 10.3799C20.3307 11.1357 20.5095 12.0469 20.5095 13.1133C20.5095 14.168 20.3337 15.0762 19.9821 15.8379C19.6305 16.5938 19.1442 17.1768 18.5231 17.5869C17.9079 17.9912 17.2018 18.1934 16.405 18.1934C15.8132 18.1934 15.3268 18.0938 14.946 17.8945C14.571 17.6895 14.2751 17.4521 14.0583 17.1826C13.8473 16.9131 13.6833 16.6758 13.5661 16.4707H13.4606V21.6738H11.5622ZM15.9919 16.5674C16.5602 16.5674 17.0348 16.415 17.4157 16.1104C17.7966 15.8057 18.0837 15.3926 18.277 14.8711C18.4762 14.3438 18.5759 13.752 18.5759 13.0957C18.5759 12.4453 18.4792 11.8623 18.2858 11.3467C18.0925 10.8311 17.8054 10.4238 17.4245 10.125C17.0436 9.82617 16.5661 9.67676 15.9919 9.67676C15.4352 9.67676 14.9665 9.82031 14.5856 10.1074C14.2048 10.3887 13.9147 10.7871 13.7155 11.3027C13.5221 11.8125 13.4255 12.4102 13.4255 13.0957C13.4255 13.7812 13.5251 14.3848 13.7243 14.9062C13.9235 15.4277 14.2136 15.835 14.5944 16.1279C14.9811 16.4209 15.447 16.5674 15.9919 16.5674ZM23.6166 4.9043V18H21.7181V4.9043H23.6166ZM25.2647 18V8.17383H27.1631V18H25.2647ZM26.2227 6.66211C25.8887 6.66211 25.6045 6.55078 25.3702 6.32812C25.1358 6.10547 25.0186 5.83887 25.0186 5.52832C25.0186 5.21191 25.1358 4.94238 25.3702 4.71973C25.6045 4.49707 25.8887 4.38574 26.2227 4.38574C26.5508 4.38574 26.8321 4.49707 27.0664 4.71973C27.3067 4.94238 27.4268 5.21191 27.4268 5.52832C27.4268 5.83887 27.3067 6.10547 27.0664 6.32812C26.8321 6.55078 26.5508 6.66211 26.2227 6.66211ZM33.3816 8.17383V9.71191H28.0202V8.17383H33.3816ZM29.4529 5.83594H31.3601V15.1172C31.3601 15.5684 31.4538 15.8994 31.6413 16.1104C31.8288 16.3154 32.1306 16.418 32.5466 16.418C32.6462 16.418 32.7517 16.4121 32.863 16.4004C32.9802 16.3887 33.0974 16.3711 33.2146 16.3477L33.5749 17.9297C33.3816 17.9941 33.1706 18.0439 32.9421 18.0791C32.7136 18.1143 32.4851 18.1318 32.2566 18.1318C31.407 18.1318 30.7273 17.8945 30.2175 17.4199C29.7077 16.9395 29.4529 16.3008 29.4529 15.5039V5.83594ZM36.682 4.9043V18H34.7836V4.9043H36.682ZM39.5255 21.6738C39.2384 21.6797 38.9776 21.6592 38.7432 21.6123C38.5147 21.5713 38.3389 21.5215 38.2159 21.4629L38.6817 19.9072L38.8136 19.9424C39.2999 20.0654 39.71 20.0566 40.044 19.916C40.3839 19.7812 40.668 19.4033 40.8966 18.7822L41.1339 18.1318L37.5479 8.17383H39.5958L42.0743 15.8027H42.1798L44.6671 8.17383H46.7149L42.672 19.3008C42.4845 19.8164 42.2471 20.25 41.96 20.6016C41.6729 20.959 41.3272 21.2256 40.9229 21.4014C40.5245 21.583 40.0587 21.6738 39.5255 21.6738Z" fill="white"/>
<path fill-rule="evenodd" clip-rule="evenodd" d="M75 18.9522V4.47609C75 2.79294 73.7359 1.42847 72.1765 1.42847H65.9726C64.5565 1.42847 63.2341 2.19236 62.4486 3.46412L60.7279 6.24995C59.9424 7.52171 58.62 8.28561 57.2039 8.28561H53.8235C52.2641 8.28561 51 9.65008 51 11.3333V18.9522C51 20.6354 52.2641 21.9999 53.8235 21.9999H72.1765C73.7359 21.9999 75 20.6354 75 18.9522Z" fill="white"/>
<path d="M62.2941 3.71411H53.8235C52.2641 3.71411 51 5.07857 51 6.76173V11.3332C51 9.65001 52.2641 8.28554 53.8235 8.28554H57.2039C58.62 8.28554 59.9424 7.52164 60.7279 6.24988L62.2941 3.71411Z" fill="white" fill-opacity="0.65"/>
<path d="M85.5215 18.1758C84.3965 18.1758 83.3887 17.9062 82.498 17.3672C81.6074 16.8281 80.9072 16.0576 80.3975 15.0557C79.8877 14.0479 79.6328 12.8496 79.6328 11.4609C79.6328 10.0605 79.8877 8.85938 80.3975 7.85742C80.9131 6.84961 81.6133 6.07617 82.498 5.53711C83.3887 4.99805 84.3965 4.72852 85.5215 4.72852C86.2129 4.72852 86.8604 4.82812 87.4639 5.02734C88.0732 5.22656 88.6182 5.5166 89.0986 5.89746C89.5791 6.27832 89.9746 6.74414 90.2852 7.29492C90.6016 7.8457 90.8125 8.46973 90.918 9.16699H88.9316C88.8555 8.73926 88.7119 8.36426 88.501 8.04199C88.2959 7.71387 88.041 7.43848 87.7363 7.21582C87.4375 6.9873 87.1006 6.81738 86.7256 6.70605C86.3564 6.58887 85.9639 6.53027 85.5479 6.53027C84.7979 6.53027 84.1211 6.7207 83.5176 7.10156C82.9199 7.47656 82.4482 8.0332 82.1025 8.77148C81.7627 9.50391 81.5928 10.4004 81.5928 11.4609C81.5928 12.5273 81.7656 13.4268 82.1113 14.1592C82.457 14.8857 82.9287 15.4365 83.5264 15.8115C84.124 16.1865 84.7949 16.374 85.5391 16.374C85.9551 16.374 86.3477 16.3184 86.7168 16.207C87.0859 16.0957 87.4229 15.9287 87.7275 15.7061C88.0322 15.4834 88.2871 15.2139 88.4922 14.8975C88.7031 14.5752 88.8496 14.2031 88.9316 13.7812H90.918C90.8184 14.4316 90.6162 15.0264 90.3115 15.5654C90.0068 16.0986 89.6172 16.5615 89.1426 16.9541C88.668 17.3408 88.126 17.6426 87.5166 17.8594C86.9072 18.0703 86.2422 18.1758 85.5215 18.1758ZM94.113 4.9043V18H92.2145V4.9043H94.113ZM99.8832 18.2021C98.9632 18.2021 98.1576 17.9912 97.4662 17.5693C96.7806 17.1475 96.2474 16.5557 95.8666 15.7939C95.4916 15.0322 95.3041 14.1475 95.3041 13.1396C95.3041 12.1201 95.4916 11.2295 95.8666 10.4678C96.2474 9.7002 96.7806 9.10547 97.4662 8.68359C98.1576 8.26172 98.9632 8.05078 99.8832 8.05078C100.809 8.05078 101.615 8.26172 102.3 8.68359C102.986 9.10547 103.519 9.7002 103.9 10.4678C104.281 11.2295 104.471 12.1201 104.471 13.1396C104.471 14.1475 104.281 15.0322 103.9 15.7939C103.519 16.5557 102.986 17.1475 102.3 17.5693C101.615 17.9912 100.809 18.2021 99.8832 18.2021ZM99.8832 16.5938C100.487 16.5938 100.985 16.4355 101.377 16.1191C101.77 15.8027 102.06 15.3838 102.247 14.8623C102.441 14.335 102.537 13.7607 102.537 13.1396C102.537 12.5068 102.441 11.9268 102.247 11.3994C102.06 10.8721 101.77 10.4502 101.377 10.1338C100.985 9.81738 100.487 9.65918 99.8832 9.65918C99.2855 9.65918 98.7904 9.81738 98.3978 10.1338C98.0111 10.4502 97.7211 10.8721 97.5277 11.3994C97.3343 11.9268 97.2377 12.5068 97.2377 13.1396C97.2377 13.7607 97.3343 14.335 97.5277 14.8623C97.7211 15.3838 98.0111 15.8027 98.3978 16.1191C98.7904 16.4355 99.2855 16.5938 99.8832 16.5938ZM111.894 13.9395V8.17383H113.792V18H111.929V16.2949H111.823C111.589 16.8164 111.226 17.2529 110.733 17.6045C110.241 17.9561 109.626 18.1289 108.888 18.123C108.255 18.123 107.695 17.9854 107.209 17.71C106.729 17.4346 106.351 17.0215 106.075 16.4707C105.806 15.9199 105.671 15.2373 105.671 14.4229V8.17383H107.569V14.2031C107.569 14.8652 107.757 15.3955 108.132 15.7939C108.507 16.1924 108.99 16.3887 109.582 16.3828C109.939 16.3828 110.294 16.2949 110.646 16.1191C111.003 15.9434 111.299 15.6738 111.533 15.3105C111.773 14.9473 111.894 14.4902 111.894 13.9395ZM119.096 18.1934C118.3 18.1934 117.591 17.9912 116.969 17.5869C116.348 17.1768 115.862 16.5938 115.51 15.8379C115.159 15.0762 114.983 14.168 114.983 13.1133C114.983 12.0469 115.162 11.1357 115.519 10.3799C115.877 9.62402 116.366 9.04688 116.987 8.64844C117.608 8.25 118.311 8.05078 119.096 8.05078C119.712 8.05078 120.204 8.15332 120.573 8.3584C120.948 8.55762 121.238 8.79199 121.443 9.06152C121.654 9.33105 121.815 9.56836 121.926 9.77344H122.041V4.9043H123.939V18H122.085V16.4707H121.926C121.815 16.6758 121.651 16.9131 121.434 17.1826C121.217 17.4521 120.922 17.6895 120.547 17.8945C120.177 18.0938 119.694 18.1934 119.096 18.1934ZM119.509 16.5674C120.06 16.5674 120.526 16.4209 120.907 16.1279C121.288 15.835 121.575 15.4277 121.768 14.9062C121.967 14.3848 122.067 13.7812 122.067 13.0957C122.067 12.4102 121.97 11.8125 121.777 11.3027C121.584 10.7871 121.297 10.3887 120.916 10.1074C120.535 9.82031 120.066 9.67676 119.509 9.67676C118.935 9.67676 118.458 9.82617 118.077 10.125C117.696 10.4238 117.409 10.8311 117.216 11.3467C117.022 11.8623 116.926 12.4453 116.926 13.0957C116.926 13.752 117.022 14.3438 117.216 14.8711C117.409 15.3926 117.696 15.8057 118.077 16.1104C118.464 16.415 118.941 16.5674 119.509 16.5674Z" fill="white"/>
</svg>
