<svg width="30" height="30" viewBox="0 0 30 30" fill="none" xmlns="http://www.w3.org/2000/svg">
<path fill-rule="evenodd" clip-rule="evenodd" d="M4.21862 13.6099C10.9295 10.7874 15.4045 8.92667 17.6435 8.02765C24.0365 5.46077 25.3649 5.01488 26.2307 5.00016C26.4212 4.99692 26.847 5.04248 27.1228 5.25852C27.3557 5.44094 27.4197 5.68737 27.4504 5.86033C27.4811 6.03328 27.5192 6.42728 27.4889 6.73514C27.1424 10.249 25.6434 18.7762 24.8808 22.7118C24.5581 24.3771 23.9227 24.9354 23.3076 24.9901C21.9707 25.1088 20.9556 24.1372 19.6608 23.3179C17.6348 22.0358 16.4901 21.2377 14.5235 19.9867C12.2507 18.5408 13.724 17.7462 15.0193 16.4475C15.3583 16.1076 21.2484 10.9358 21.3624 10.4667C21.3767 10.408 21.3899 10.1893 21.2553 10.0738C21.1207 9.95831 20.922 9.9978 20.7787 10.0292C20.5754 10.0737 17.3388 12.1389 11.0686 16.2247C10.1499 16.8337 9.3177 17.1304 8.57212 17.1149C7.75018 17.0977 6.1691 16.6663 4.99372 16.2974C3.55207 15.8451 2.40628 15.6059 2.50606 14.8376C2.55802 14.4374 3.12888 14.0282 4.21862 13.6099Z" fill="#848484"/>
</svg>
